<svg xmlns="http://www.w3.org/2000/svg" viewBox="0 0 32.15 32.15"><g id="Layer_2" data-name="Layer 2"><g id="Layer_1-2" data-name="Layer 1"><g id="кухня"><g id="SVGCleanerId_0" data-name="SVGCleanerId 0"><path class="cls-1" d="M23,19.29H9.11a.54.54,0,0,0-.54.54V31.61a.54.54,0,0,0,.54.54H23a.54.54,0,0,0,.54-.54V19.83A.54.54,0,0,0,23,19.29ZM22.5,31.08H9.64V20.36H22.5V31.08Z"></path></g><path class="cls-1" d="M23,19.29H9.11a.54.54,0,0,0-.54.54V31.61a.54.54,0,0,0,.54.54H23a.54.54,0,0,0,.54-.54V19.83A.54.54,0,0,0,23,19.29ZM22.5,31.08H9.64V20.36H22.5V31.08Z"></path><path class="cls-1" d="M9.11,19.29H.54a.54.54,0,0,0-.54.54V31.61a.54.54,0,0,0,.54.54H9.11a.54.54,0,0,0,.53-.54V19.83A.54.54,0,0,0,9.11,19.29ZM8.57,31.08H1.07V20.36h7.5V31.08Z"></path><path class="cls-1" d="M31.61,19.29H23a.54.54,0,0,0-.54.54V31.61a.54.54,0,0,0,.54.54h8.57a.54.54,0,0,0,.54-.54V19.83A.54.54,0,0,0,31.61,19.29Zm-.53,11.79h-7.5V20.36h7.5V31.08Z"></path><path class="cls-1" d="M20.9,23.58H11.25a.53.53,0,0,0-.53.53v5.36a.54.54,0,0,0,.53.54H20.9a.54.54,0,0,0,.53-.54V24.11A.53.53,0,0,0,20.9,23.58Zm-.54,5.35H11.79V24.65h8.57v4.28Z"></path><rect class="cls-1" x="16.61" y="21.43" width="1.07" height="1.07"></rect><rect class="cls-1" x="14.47" y="21.43" width="1.07" height="1.07"></rect><rect class="cls-1" x="12.32" y="21.43" width="1.07" height="1.07"></rect><rect class="cls-1" x="18.75" y="21.43" width="1.07" height="1.07"></rect><rect class="cls-1" x="0.54" y="23.58" width="8.57" height="1.07"></rect><rect class="cls-1" x="3.75" y="21.43" width="2.14" height="1.07"></rect><rect class="cls-1" x="3.75" y="25.72" width="2.14" height="1.07"></rect><rect class="cls-1" x="23.04" y="23.58" width="8.57" height="1.07"></rect><rect class="cls-1" x="26.79" y="24.11" width="1.07" height="7.5"></rect><rect class="cls-1" x="26.26" y="21.43" width="2.14" height="1.07"></rect><rect class="cls-1" x="24.65" y="26.79" width="1.07" height="1.61"></rect><rect class="cls-1" x="28.93" y="26.79" width="1.07" height="1.61"></rect><path class="cls-1" d="M22.88,8.73l-2-2V.54A.54.54,0,0,0,20.36,0H11.79a.54.54,0,0,0-.54.54v6.2l-2,2a.52.52,0,0,0-.12.58.53.53,0,0,0,.49.33H22.5a.54.54,0,0,0,.5-.33A.52.52,0,0,0,22.88,8.73ZM10.94,8.57l1.23-1.23A.51.51,0,0,0,12.32,7V1.07h7.51V7a.51.51,0,0,0,.15.37l1.23,1.23Z"></path><path class="cls-1" d="M28.93,11.79a2.14,2.14,0,0,0-2.14,2.14v.54h1.07v-.54a1.08,1.08,0,0,1,2.15,0v5.9h1.07v-5.9A2.14,2.14,0,0,0,28.93,11.79Z"></path><rect class="cls-1" x="28.93" y="17.15" width="1.61" height="1.07"></rect><path class="cls-1" d="M15.54,16.07H10.18a.54.54,0,0,0-.54.54v3.22a.54.54,0,0,0,.54.53h5.36a.53.53,0,0,0,.53-.53V16.61A.54.54,0,0,0,15.54,16.07ZM15,19.29H10.72V17.15H15Z"></path><rect class="cls-1" x="8.57" y="17.15" width="1.61" height="1.07"></rect><rect class="cls-1" x="15.54" y="17.15" width="1.61" height="1.07"></rect><path class="cls-1" d="M9.11,0H.54A.54.54,0,0,0,0,.54V7a.54.54,0,0,0,.54.53H9.11A.53.53,0,0,0,9.64,7V.54A.54.54,0,0,0,9.11,0ZM8.57,6.43H1.07V1.07h7.5V6.43Z"></path><rect class="cls-1" x="6.43" y="3.21" width="1.07" height="2.14"></rect><path class="cls-1" d="M31.61,0H23a.54.54,0,0,0-.54.54V7A.54.54,0,0,0,23,7.5h8.57A.54.54,0,0,0,32.15,7V.54A.54.54,0,0,0,31.61,0Zm-.53,6.43h-7.5V1.07h7.5V6.43Z"></path><rect class="cls-1" x="24.65" y="3.21" width="1.07" height="2.14"></rect><rect class="cls-1" y="10.72" width="9.64" height="1.07"></rect><rect class="cls-1" x="1.07" y="9.64" width="1.07" height="4.82"></rect><path class="cls-1" d="M1.61,13.93a1.61,1.61,0,1,0,1.6,1.61A1.61,1.61,0,0,0,1.61,13.93Zm0,2.14a.54.54,0,1,1,.53-.53A.54.54,0,0,1,1.61,16.07Z"></path><rect class="cls-1" x="3.21" y="9.64" width="1.07" height="4.82"></rect><path class="cls-1" d="M3.75,13.93a1.61,1.61,0,1,0,1.61,1.61A1.61,1.61,0,0,0,3.75,13.93Zm0,2.14a.54.54,0,1,1,.54-.53A.54.54,0,0,1,3.75,16.07Z"></path><rect class="cls-1" x="5.36" y="9.64" width="1.07" height="4.82"></rect><path class="cls-1" d="M5.89,13.93A1.61,1.61,0,1,0,7.5,15.54,1.61,1.61,0,0,0,5.89,13.93Zm0,2.14a.54.54,0,1,1,.54-.53A.53.53,0,0,1,5.89,16.07Z"></path></g></g></g></svg>